<svg width="15" height="16" viewBox="0 0 15 16" fill="none" xmlns="http://www.w3.org/2000/svg">
<path fill-rule="evenodd" clip-rule="evenodd" d="M5.09066 0H9.45429C10.2576 0 10.9088 0.651221 10.9088 1.45454V2.18179H13.0909C13.8942 2.18179 14.5454 2.83301 14.5454 3.63633V5.09087C14.5454 5.89419 13.8942 6.54542 13.0909 6.54542H13.033L12.364 14.5454C12.364 15.3488 11.7128 16 10.9094 16H3.63672C2.8334 16 2.18218 15.3488 2.18469 14.6058L1.51299 6.54542H1.45454C0.651221 6.54542 0 5.89419 0 5.09087V3.63633C0 2.83301 0.651221 2.18179 1.45454 2.18179H3.63612V1.45454C3.63612 0.651221 4.28734 0 5.09066 0ZM3.63737 14.5454L2.973 6.54543H11.5742L10.9126 14.485L10.9101 14.5454H3.63737ZM1.45534 5.0909V3.63636H13.0917V5.0909H1.45534ZM9.45499 1.45454V2.18181H5.09136V1.45454H9.45499Z" fill="black"/>
</svg>
