<svg width="47" height="47" viewBox="0 0 47 47" fill="none" xmlns="http://www.w3.org/2000/svg">
<path d="M23.31 46.62C36.1838 46.62 46.62 36.1838 46.62 23.31C46.62 10.4362 36.1838 0 23.31 0C10.4362 0 0 10.4362 0 23.31C0 36.1838 10.4362 46.62 23.31 46.62Z"/>
<path d="M20.8199 35.8799C20.3399 35.8799 19.8799 35.7099 19.5199 35.3999L10.3799 27.5699C9.53985 26.8499 9.43985 25.5899 10.1599 24.7499C10.8799 23.9099 12.1399 23.8099 12.9799 24.5299L20.5799 31.0399L33.6299 15.3899C34.3399 14.5399 35.5999 14.4299 36.4499 15.1299C37.2999 15.8399 37.4099 17.0999 36.6999 17.9499L22.3599 35.1599C22.0199 35.5699 21.5199 35.8299 20.9899 35.8699C20.9399 35.8699 20.8799 35.8799 20.8199 35.8799Z" fill="white"/>
</svg>
