<?xml version="1.0" encoding="utf-8"?>
<!-- Generator: Adobe Illustrator 24.2.1, SVG Export Plug-In . SVG Version: 6.00 Build 0)  -->
<svg version="1.1" id="Layer_1" xmlns="http://www.w3.org/2000/svg" xmlns:xlink="http://www.w3.org/1999/xlink" x="0px" y="0px"
	 viewBox="0 0 12 12" enable-background="new 0 0 12 12" xml:space="preserve">
	<path id="Fill-1-Copy-2" fill-rule="evenodd" clip-rule="evenodd" d="M5.2,6.2c0-0.4,0.3-0.8,0.8-0.8
		s0.8,0.3,0.8,0.8v2C6.8,8.7,6.4,9,6,9S5.2,8.7,5.2,8.2V6.2z M6,3c0.4,0,0.8,0.3,0.8,0.8c0,0.4-0.3,0.8-0.8,0.8S5.2,4.2,5.2,3.8
		C5.2,3.3,5.6,3,6,3L6,3z M6,12c3.3,0,6-2.7,6-6S9.3,0,6,0S0,2.7,0,6S2.7,12,6,12L6,12z"/>
</svg>
