<?xml version="1.0" encoding="utf-8"?>
<!-- Generator: Adobe Illustrator 24.2.1, SVG Export Plug-In . SVG Version: 6.00 Build 0)  -->
<svg version="1.1" id="Layer_1" xmlns="http://www.w3.org/2000/svg" xmlns:xlink="http://www.w3.org/1999/xlink" x="0px" y="0px"
	 viewBox="0 0 16 16" enable-background="new 0 0 16 16" xml:space="preserve">
<desc>Created with Sketch.</desc>
<g id="Symbols">
	<g id="Icon_search">
		<path id="Fill-1" fill-rule="evenodd" clip-rule="evenodd" d="M9.2,9.2c-1.7,1.7-4.5,1.7-6.2,0S1.2,4.7,3,3
			s4.5-1.7,6.2,0S10.9,7.5,9.2,9.2 M10.4,1.8C8-0.6,4.2-0.6,1.8,1.8c-2.4,2.4-2.4,6.2,0,8.6c2.3,2.3,5.8,2.4,8.2,0.3l0.1,1.2
			c0,0.1,0.1,0.2,0.2,0.3l3.6,3.6c0.2,0.2,0.5,0.2,0.8,0l1.2-1.2c0.2-0.2,0.2-0.6,0-0.8l-3.6-3.6c-0.1-0.1-0.2-0.1-0.3-0.2L10.7,10
			C12.7,7.6,12.6,4,10.4,1.8"/>
	</g>
</g>
</svg>
