<svg width="15" height="15" viewBox="0 0 15 15" fill="none" xmlns="http://www.w3.org/2000/svg">
<path fill-rule="evenodd" clip-rule="evenodd" d="M8.4375 7.1875C8.4375 7.705 8.0175 8.125 7.5 8.125C6.9825 8.125 6.5625 7.705 6.5625 7.1875V4.6875C6.5625 4.17 6.9825 3.75 7.5 3.75C8.0175 3.75 8.4375 4.17 8.4375 4.6875V7.1875ZM7.5 11.25C6.9825 11.25 6.5625 10.83 6.5625 10.3125C6.5625 9.795 6.9825 9.375 7.5 9.375C8.0175 9.375 8.4375 9.795 8.4375 10.3125C8.4375 10.83 8.0175 11.25 7.5 11.25ZM7.5 0C3.35875 0 0 3.35875 0 7.5C0 11.6412 3.35875 15 7.5 15C11.6412 15 15 11.6412 15 7.5C15 3.35875 11.6412 0 7.5 0Z"/>
</svg>
