<?xml version="1.0" encoding="utf-8"?>
<!-- Generator: Adobe Illustrator 24.2.1, SVG Export Plug-In . SVG Version: 6.00 Build 0)  -->
<svg version="1.1" id="Layer_1" xmlns="http://www.w3.org/2000/svg" xmlns:xlink="http://www.w3.org/1999/xlink" x="0px" y="0px"
	 viewBox="0 0 20 18" enable-background="new 0 0 20 18" xml:space="preserve">
<g id="Icon_x2F_edit">
	<g id="Group-3" transform="translate(0.000000, 1.167765)">
		<defs>
			<filter id="Adobe_OpacityMaskFilter" filterUnits="userSpaceOnUse" x="0" y="0.9" width="15.5" height="15.5">
				<feColorMatrix  type="matrix" values="1 0 0 0 0  0 1 0 0 0  0 0 1 0 0  0 0 0 1 0"/>
			</filter>
		</defs>
		<path id="Fill-1" fill-rule="evenodd" clip-rule="evenodd" d="M13.6,16.5H1.9
			c-1,0-1.9-0.8-1.9-1.9V2.8c0-1,0.8-1.9,1.9-1.9h8c0.4,0,0.7,0.3,0.7,0.7s-0.3,0.7-0.7,0.7h-8c-0.3,0-0.5,0.2-0.5,0.5v11.8
			c0,0.3,0.2,0.5,0.5,0.5h11.8c0.3,0,0.5-0.2,0.5-0.5v-4.3c0-0.4,0.3-0.7,0.7-0.7c0.4,0,0.7,0.3,0.7,0.7v4.3
			C15.5,15.6,14.7,16.5,13.6,16.5"/>
	</g>
	<path id="Fill-4" fill-rule="evenodd" clip-rule="evenodd" d="M9.2,12.8L6,13.2c-0.1,0-0.2-0.1-0.2-0.2l0.5-3.2
		c0,0,0-0.1,0-0.1L14,2.1c0.1-0.1,0.1-0.1,0.2,0L17,4.8C17,4.9,17,5,17,5L9.2,12.8C9.2,12.8,9.2,12.8,9.2,12.8"/>
	<path id="Fill-6" fill-rule="evenodd" clip-rule="evenodd" d="M18.8,3.1c0.3-0.3,0.3-0.7,0-1l-2-2
		c-0.3-0.3-0.7-0.3-1,0l-1.3,1.3c-0.1,0.1-0.1,0.1,0,0.2l2.7,2.7c0.1,0.1,0.1,0.1,0.2,0L18.8,3.1z"/>
</g>
</svg>
