<svg width="12" height="12" viewBox="0 0 12 12" fill="none" xmlns="http://www.w3.org/2000/svg">
<path fill-rule="evenodd" clip-rule="evenodd" d="M10.2822 5.78269C9.88618 5.78269 9.56418 6.10369 9.56418 6.50069V10.3267C9.56418 10.4587 9.45818 10.5647 9.32618 10.5647H1.67418C1.54218 10.5647 1.43518 10.4587 1.43518 10.3267V2.67469C1.43518 2.54269 1.54218 2.43469 1.67418 2.43469H5.50018C5.89618 2.43469 6.21818 2.11369 6.21818 1.71769C6.21818 1.32069 5.89618 0.999695 5.50018 0.999695H1.67418C0.751183 0.999695 0.000183105 1.75169 0.000183105 2.67469V10.3267C0.000183105 11.2497 0.751183 12.0007 1.67418 12.0007H9.32618C10.2492 12.0007 11.0002 11.2497 11.0002 10.3267V6.50069C11.0002 6.10369 10.6782 5.78269 10.2822 5.78269Z"/>
<path fill-rule="evenodd" clip-rule="evenodd" d="M11.502 -0.000488281H8.36199C7.91899 -0.000488281 7.69599 0.536512 8.00999 0.851512L9.04999 1.89051L4.46999 6.47051C4.17699 6.76351 4.17699 7.23751 4.46999 7.53051C4.61599 7.67751 4.80799 7.75051 4.99999 7.75051C5.19199 7.75051 5.38399 7.67751 5.52999 7.53051L10.11 2.95051L11.149 3.98951C11.463 4.30451 12 4.08151 12 3.63751V0.498512C12 0.223512 11.777 -0.000488281 11.502 -0.000488281Z" />
</svg>
